Coordinates
version=1
nRows=21
nColumns=11
inDegrees=yes

Units are S.I. units (second, meters, Newtons, ...)
If the header above contains a line with 'inDegrees', this indicates whether rotational values are in degrees (yes) or radians (no).

endheader
time	pelvis_tilt	pelvis_tx	pelvis_ty	hip_flexion_l	hip_flexion_r	knee_angle_l	knee_angle_r	ankle_angle_l	ankle_angle_r	lumbar
     85.60000000	    -14.18921343	      0.04710598	      0.72283931	     81.63530020	     81.63530020	    -75.57605429	    -75.57605429	      8.96269859	      8.96269859	    -44.33154620
     85.61000000	    -15.08264380	      0.05088128	      0.72359242	     82.11414491	     82.11414491	    -75.36715095	    -75.36715095	      9.11484606	      9.11484606	    -44.08313765
     85.62000000	    -15.92672813	      0.05470320	      0.72443263	     82.53634914	     82.53634914	    -75.16357740	    -75.16357740	      9.28763756	      9.28763756	    -43.83142845
     85.63000000	    -16.71138884	      0.05858580	      0.72533910	     82.89852331	     82.89852331	    -74.97839535	    -74.97839535	      9.48359156	      9.48359156	    -43.57194061
     85.64000000	    -17.33087360	      0.06251122	      0.72673159	     83.03968130	     83.03968130	    -74.72540401	    -74.72540401	      9.60816014	      9.60816014	    -43.48262687
     85.65000000	    -18.09469863	      0.06638546	      0.72737288	     83.44085114	     83.44085114	    -74.64099947	    -74.64099947	      9.89623985	      9.89623985	    -43.08575054
     85.66000000	    -18.64855886	      0.07030901	      0.72860148	     83.57645099	     83.57645099	    -74.49542159	    -74.49542159	     10.08537397	     10.08537397	    -42.91368301
     85.67000000	    -19.21787638	      0.07418217	      0.72964197	     83.74362473	     83.74362473	    -74.36662438	    -74.36662438	     10.39604921	     10.39604921	    -42.61301442
     85.68000000	    -19.67043035	      0.07806762	      0.73091760	     83.78772143	     83.78772143	    -74.24169379	    -74.24169379	     10.66523374	     10.66523374	    -42.39752945
     85.69000000	    -19.98934699	      0.08194657	      0.73247838	     83.68779096	     83.68779096	    -74.09961759	    -74.09961759	     10.73769848	     10.73769848	    -42.28759982
     85.70000000	    -20.37789307	      0.08573373	      0.73377692	     83.68142164	     83.68142164	    -73.99720869	    -73.99720869	     11.20127259	     11.20127259	    -42.00139381
     85.71000000	    -20.59569900	      0.08958511	      0.73532979	     83.52444838	     83.52444838	    -73.93796602	    -73.93796602	     11.23078532	     11.23078532	    -41.84648127
     85.72000000	    -20.85092828	      0.09323689	      0.73716225	     83.32637034	     83.32637034	    -73.70388661	    -73.70388661	     11.38385993	     11.38385993	    -41.65092625
     85.73000000	    -21.01686712	      0.09699688	      0.73878261	     83.13177665	     83.13177665	    -73.66218480	    -73.66218480	     11.42988747	     11.42988747	    -41.42801961
     85.74000000	    -21.07360775	      0.10072375	      0.74112127	     82.68805275	     82.68805275	    -73.42412280	    -73.42412280	     12.21936403	     12.21936403	    -41.37694664
     85.75000000	    -21.22013425	      0.10430272	      0.74317385	     82.39086414	     82.39086414	    -73.21857166	    -73.21857166	     12.30595756	     12.30595756	    -41.14031828
     85.76000000	    -21.23360094	      0.10789270	      0.74555323	     81.94355829	     81.94355829	    -73.00031187	    -73.00031187	     12.55158284	     12.55158284	    -41.02719331
     85.77000000	    -21.34283373	      0.11133958	      0.74785582	     81.58420322	     81.58420322	    -72.74769437	    -72.74769437	     12.68447300	     12.68447300	    -40.77174503
     85.78000000	    -21.30811545	      0.11487549	      0.75054326	     81.04272509	     81.04272509	    -72.48149821	    -72.48149821	     13.03637057	     13.03637057	    -40.66049813
     85.79000000	    -21.45663204	      0.11810665	      0.75290948	     80.71055072	     80.71055072	    -72.16262683	    -72.16262683	     13.09629019	     13.09629019	    -40.30896361
     85.80000000	    -21.52219704	      0.12129589	      0.75563012	     80.26134649	     80.26134649	    -71.80414843	    -71.80414843	     13.22210058	     13.22210058	    -40.05686666
